<?xml version="1.0" standalone="no"?>
<!DOCTYPE svg PUBLIC "-//W3C//DTD SVG 20010904//EN"
 "http://www.w3.org/TR/2001/REC-SVG-20010904/DTD/svg10.dtd">
<svg version="1.0" xmlns="http://www.w3.org/2000/svg"
 width="500.000000pt" height="567.000000pt" viewBox="0 0 500.000000 567.000000"
 preserveAspectRatio="xMidYMid meet">

<g transform="translate(0.000000,567.000000) scale(0.100000,-0.100000)"
fill="#000000" stroke="none">
<path d="M1146 5141 c-4 -6 -17 -11 -28 -11 -43 0 -159 -42 -235 -85 -82 -46
-226 -176 -242 -217 -6 -17 -30 -32 -82 -53 -41 -17 -96 -45 -124 -63 -27 -17
-59 -35 -70 -38 -30 -10 -144 -105 -202 -171 -74 -83 -123 -146 -123 -159 0
-6 -9 -23 -20 -37 -20 -25 -20 -40 -20 -2166 l0 -2141 1895 0 c1042 0 1895 4
1895 8 0 5 23 33 51 63 88 93 111 183 66 250 -29 44 -60 59 -123 59 l-51 0 -7
43 c-4 23 -18 58 -32 78 -25 37 -61 49 -145 49 -16 0 -29 5 -29 11 0 6 -14 30
-31 55 -42 62 -142 108 -255 118 -48 4 -91 3 -106 -3 -26 -10 -28 -8 -54 47
-15 31 -42 78 -61 103 -18 26 -33 51 -33 56 0 9 -61 72 -98 100 -26 20 -22 48
7 58 10 3 27 21 37 40 10 19 22 35 26 35 5 0 8 6 8 13 0 6 8 26 17 42 9 17 19
57 22 89 6 55 8 60 34 67 36 10 129 57 142 72 6 7 46 39 90 71 44 33 82 64 84
69 2 5 12 18 23 29 21 21 88 144 88 162 0 6 7 25 16 41 24 46 13 161 -23 240
-25 55 -34 65 -76 85 -34 15 -63 21 -93 18 -24 -2 -44 -2 -44 -1 0 1 5 14 10
29 22 57 29 166 16 237 -13 68 -7 106 33 202 25 62 33 109 36 223 2 101 -1
143 -16 204 -25 95 -61 188 -88 227 -12 16 -21 32 -21 35 0 8 -80 85 -107 103
-13 8 -20 19 -17 24 3 5 -4 9 -15 9 -12 0 -21 5 -21 11 0 5 -4 8 -9 5 -5 -4
-11 24 -14 61 -6 106 -28 245 -43 282 -8 18 -11 37 -8 42 3 5 0 9 -6 9 -7 0
-10 7 -6 15 3 8 0 15 -6 15 -6 0 -9 3 -5 6 8 9 -34 115 -55 138 -10 11 -18 25
-18 31 0 7 -13 30 -29 53 -16 22 -34 57 -40 79 -6 21 -24 52 -41 70 -16 18
-30 39 -30 47 0 9 -4 17 -10 17 -19 3 -25 5 -50 18 -14 8 -30 21 -37 30 -6 9
-15 13 -19 9 -4 -4 -30 6 -59 22 -29 16 -55 27 -58 23 -4 -3 -7 -1 -7 6 0 7
-4 10 -9 7 -11 -7 -21 18 -21 55 0 41 -47 155 -88 214 -47 67 -143 158 -213
201 -49 29 -65 34 -121 34 -36 0 -69 -5 -76 -12 -8 -8 -12 -70 -13 -207 -1
-108 -4 -223 -8 -256 -6 -57 -8 -60 -46 -80 -22 -11 -42 -23 -45 -26 -3 -4
-32 -25 -65 -48 -33 -23 -82 -63 -110 -90 -27 -26 -58 -51 -68 -54 -10 -4 -16
-11 -13 -16 5 -8 -28 -59 -48 -73 -9 -6 -31 38 -81 159 -16 39 -85 143 -135
203 -11 14 -29 36 -40 49 -11 13 -20 27 -20 31 0 4 -25 33 -55 65 -43 44 -55
64 -55 89 0 74 71 258 122 312 14 16 18 33 16 65 -3 37 -7 46 -33 58 -40 19
-120 27 -129 12z m-357 -2333 c63 -28 89 -44 76 -46 -37 -7 -56 -33 -49 -65 5
-26 4 -28 -14 -18 -28 15 -122 120 -122 137 0 8 -4 14 -10 14 -5 0 -10 5 -10
10 0 18 32 10 129 -32z m187 -150 c4 -13 2 -24 -5 -26 -6 -2 -11 -10 -11 -19
0 -15 -33 -10 -57 9 -15 12 -17 38 -3 38 6 0 10 6 10 14 0 35 54 22 66 -16z
m207 -113 c21 -22 52 -59 68 -82 17 -24 34 -43 39 -43 6 0 10 -9 10 -19 0 -11
5 -23 10 -26 6 -3 10 -15 10 -26 0 -22 -3 -22 -80 9 -48 19 -130 60 -130 66 0
1 19 2 43 2 39 -1 42 1 45 26 3 27 -34 108 -49 108 -4 0 -15 12 -25 28 -17 26
-17 27 2 12 10 -8 36 -33 57 -55z m-87 24 c25 -20 47 -70 36 -81 -22 -22 -132
57 -132 94 0 14 76 4 96 -13z m1638 -87 c5 -8 -54 -70 -149 -157 -45 -41 -116
-89 -190 -129 l-50 -27 72 66 c46 42 76 78 83 101 12 34 11 38 -14 59 l-27 23
28 10 c154 58 234 75 247 54z m-299 -122 c8 -13 -11 -47 -34 -59 -31 -17 -69
-20 -81 -6 -17 21 -1 43 43 59 51 18 64 19 72 6z m-273 -113 c-39 -40 -46
-101 -12 -112 42 -13 18 -22 -37 -13 -79 12 -90 25 -63 71 12 21 29 37 38 37
10 0 35 11 57 25 53 32 55 31 17 -8z m128 18 c0 -8 6 -12 14 -9 24 9 29 -17 8
-38 -21 -21 -42 -17 -42 7 0 9 -6 12 -15 9 -8 -4 -22 -3 -31 0 -15 6 -15 8 1
26 21 23 65 27 65 5z m-47 -142 c-7 -2 -19 -2 -25 0 -7 3 -2 5 12 5 14 0 19
-2 13 -5z m607 -1467 c0 -18 -46 -26 -66 -11 -16 11 -16 24 0 85 3 8 5 19 5
24 1 14 61 -82 61 -98z m6 -403 c-4 -27 -9 -55 -10 -63 -3 -25 -30 -90 -37
-90 -12 0 -109 82 -119 100 -6 10 -10 30 -10 45 0 31 23 41 100 44 30 1 57 4
59 7 16 16 23 -2 17 -43z m2 -179 c19 -4 22 -9 16 -27 -3 -12 -8 -24 -10 -26
-4 -5 -91 47 -99 59 -5 8 35 6 93 -6z"/>
</g>
</svg>
